<svg width="30" height="28" viewBox="0 0 30 28" fill="none" xmlns="http://www.w3.org/2000/svg">
<g clip-path="url(#clip0_306_130)">
<path d="M0.64112 26.4434C0.848889 27.3366 1.62308 27.9606 2.52332 27.9606H27.4527C28.353 27.9606 29.1272 27.3366 29.3348 26.4443L29.9632 23.7685C30.033 23.4716 29.8136 23.1842 29.515 23.1842H29.064V7.65482C29.064 6.6656 28.28 5.8611 27.3163 5.8611H27.0812V0.00188337L2.89772 0.00166194C2.89728 0.600891 2.89943 -2.16875 2.89297 5.86087H2.65783C1.69656 5.86087 0.914392 6.66561 0.914392 7.6546V23.184H0.461351C0.16241 23.184 -0.0567809 23.4714 0.0130492 23.7682L0.64112 26.4434ZM27.0812 6.80791H27.3164C27.7714 6.80791 28.1419 7.18815 28.1419 7.6551V23.184H27.0812V6.80791ZM3.81978 0.94869H26.1587V1.96866L12.2677 1.96999V2.91651L26.1587 2.91519V3.93515H3.81978V0.94869ZM3.81505 4.88185H26.159V23.1843H3.81505V4.88185ZM17.4456 24.1357L17.4376 24.8525L12.5253 24.8388V24.1357H17.4456ZM1.837 7.65488C1.837 7.18792 2.20534 6.80768 2.65796 6.80768H2.8931V23.1842H1.83698L1.837 7.65488ZM11.6031 24.1357V24.8389C11.6031 25.3682 12.0229 25.7991 12.5386 25.7991H17.4376C17.9535 25.7991 18.3733 25.3682 18.3733 24.8389V24.1357C18.6828 24.1355 28.6183 24.1313 28.9295 24.131L28.4378 26.2236C28.3296 26.6889 27.9245 27.0141 27.4527 27.0141L2.52382 27.0143C2.05202 27.0143 1.64702 26.6892 1.53844 26.2229L1.04703 24.1312C2.12637 24.1314 -2.8631 24.1295 11.6032 24.1356L11.6031 24.1357Z" fill="#515151"/>
<path d="M9.13379 1.96948H10.2033V2.91601H9.13379V1.96948Z" fill="#515151"/>
<path d="M6.99805 1.96948H8.06751V2.91601H6.99805V1.96948Z" fill="#515151"/>
<path d="M4.86523 1.96948H5.93471V2.91601H4.86523V1.96948Z" fill="#515151"/>
<path d="M10.9352 12.1105V10.6584L5.73633 13.6144V14.738L10.9352 17.5557V16.0979L7.14554 14.1791V14.1215L10.9352 12.1105Z" fill="#515151"/>
<path d="M18.1028 14.1071C18.1028 15.8919 16.7152 17.3255 15.0192 17.3255C13.3232 17.3255 11.9355 15.8919 11.9355 14.1071C11.9355 12.3223 13.3232 10.8887 15.0192 10.8887C16.7152 10.8887 18.1028 12.3223 18.1028 14.1071Z" fill="white" stroke="#515151"/>
<path d="M13.1758 11.9607L16.8485 16.2527" stroke="#515151"/>
<path d="M19.1025 12.1105L22.8923 14.1214V14.179L19.1025 16.1036V17.5557L24.3014 14.738V13.6144L19.1025 10.6584V12.1105Z" fill="#515151"/>
</g>
<defs>
<clipPath id="clip0_306_130">
<rect width="30" height="28" fill="white"/>
</clipPath>
</defs>
</svg>
